<?xml version="1.0" encoding="UTF-8" standalone="no"?>
<svg
   viewBox="0 0 506.276 92.88999"
   id="svg2"
   height="92.889999"
   width="506.276"
   version="1.1"
   sodipodi:docname="logo.svg"
   inkscape:version="1.2.1 (9c6d41e410, 2022-07-14)"
   xmlns:inkscape="http://www.inkscape.org/namespaces/inkscape"
   xmlns:sodipodi="http://sodipodi.sourceforge.net/DTD/sodipodi-0.dtd"
   xmlns="http://www.w3.org/2000/svg"
   xmlns:svg="http://www.w3.org/2000/svg"
   xmlns:rdf="http://www.w3.org/1999/02/22-rdf-syntax-ns#"
   xmlns:cc="http://creativecommons.org/ns#"
   xmlns:dc="http://purl.org/dc/elements/1.1/">
  <sodipodi:namedview
     id="namedview182"
     pagecolor="#ffffff"
     bordercolor="#000000"
     borderopacity="0.25"
     inkscape:showpageshadow="2"
     inkscape:pageopacity="0.0"
     inkscape:pagecheckerboard="0"
     inkscape:deskcolor="#d1d1d1"
     showgrid="false"
     inkscape:zoom="0.99419191"
     inkscape:cx="115.16891"
     inkscape:cy="260.51308"
     inkscape:window-width="1920"
     inkscape:window-height="1017"
     inkscape:window-x="-8"
     inkscape:window-y="-8"
     inkscape:window-maximized="1"
     inkscape:current-layer="svg2" />
  <metadata
     id="metadata12">
    <rdf:RDF>
      <cc:Work
         rdf:about="">
        <dc:format>image/svg+xml</dc:format>
        <dc:type
           rdf:resource="http://purl.org/dc/dcmitype/StillImage" />
      </cc:Work>
    </rdf:RDF>
  </metadata>
  <defs
     id="defs10" />
  <path
     id="path4"
     style="fill:#ffffff;fill-rule:evenodd;stroke:#1b1918;stroke-width:0.5669;stroke-linecap:butt;stroke-linejoin:miter;stroke-dasharray:none"
     d="M 495.4424,82.6031 H 9.1924 c 1.1199,-13.458 6.2515,-63.405 8.1042,-72.0367 0.2552,-1.1912 2.0707,-0.8997 4.503,-0.8997 h 449.3303 c 12.7604,0 28.7975,10.0866 26.6672,23.8977 z M 10.0932,88.9067 h 483.5476 c 10.1546,0 7.1874,-11.667 8.152,-23.3649 0.7743,-9.3921 1.5645,-19.634 1.7304,-29.8089 0.1138,-6.9566 1.3443,-6.1727 -0.9742,-12.4508 C 498.3363,11.8778 485.7323,4.2639 473.8313,4.2639 H 17.2966 c -2.963,0 -5.5825,4.2424 -6.0898,6.5163 L 4.6075,70.8148 c -0.72,7.5097 -4.3531,18.0919 5.4857,18.0919 z" />
  <path
     id="path6"
     style="fill:#5bc3cd;fill-rule:evenodd"
     d="M 15.2248,76.9959 58.795,77.0413 C 71.4857,76.2689 78.8309,65.9405 80.8602,46.0711 82.8895,26.1866 77.1649,15.8736 63.7168,15.1012 L 21.4341,15.0558 Z M 35.8514,30.2302 H 58.704 c 2.8321,0.1211 4.7251,1.2269 5.6792,3.3319 1.3629,3.3922 1.7567,7.5872 1.2116,12.5546 -0.5454,4.9672 -1.5449,8.6018 -2.9835,10.9038 -1.1358,2.4684 -2.9835,3.8619 -5.5579,4.2253 L 32.7923,61.2004 Z M 142.1038,76.9049 H 98.367 C 85.8276,76.1628 80.5271,65.8192 82.4504,45.8744 84.3888,25.9142 92.158,15.6009 105.7271,14.9195 h 42.5554 l -1.5142,15.0837 -37.7093,0.0453 c -3.1955,-0.121 -5.1038,0.6815 -5.7246,2.3928 l -1.5146,5.3308 44.2367,0.0453 -1.5903,14.9021 -43.8882,-0.1664 0.0456,3.4982 c 0.1211,2.9531 1.1812,4.5584 3.1952,4.7855 l 39.8903,-0.0454 z m 8.3597,-62.1521 -1.787,17.4764 5.1035,-0.0907 -2.211,21.5654 c -1.5225,14.8516 4.2236,23.292 17.7647,23.292 h 42.7677 l 1.7105,-17.4767 -37.7547,-0.0453 c -3.8466,-0.3938 -5.7546,-2.4534 -5.7245,-6.179 l 2.1809,-21.02 31.8031,0.0453 1.7416,-17.5674 z m 56.9733,61.9704 4.3004,-42.2829 c 1.3022,-12.8041 9.6202,-19.9432 23.0193,-19.9146 l 21.0353,0.0454 c 12.1913,0.8178 17.9159,7.4055 17.1737,19.7331 l -4.2556,42.5098 h -16.5073 l 1.9083,-18.9 -27.608,-0.1364 -1.8627,18.9456 z m 27.9861,-47.5075 c -4.4373,0.106 -6.618,2.3017 -6.5576,6.5574 l -0.7118,6.618 h 27.5476 l 0.5755,-5.1944 c 0.8934,-4.7858 -0.4998,-7.4662 -4.1647,-8.0266 z m 36.1644,47.7802 h 18.5517 l 6.1639,-62.1221 H 278.16 Z m 27.6838,-62.2431 -3.9377,39.0875 c -1.6355,14.902 4.3314,22.7012 17.8702,23.3827 h 42.9494 l 1.6507,-17.5371 -37.891,-0.0454 c -3.877,-0.3787 -5.7853,-2.4534 -5.7246,-6.2093 l 3.9073,-38.6784 z M 420.6222,76.9049 H 376.8854 C 364.346,76.1628 359.0455,65.8192 360.9688,45.8744 c 1.9383,-19.9602 9.7075,-30.2735 23.2767,-30.9549 h 42.5554 l -1.5143,15.0837 -37.7092,0.0453 c -3.1955,-0.121 -5.1038,0.6815 -5.7246,2.3928 l -1.5146,5.3308 44.2367,0.0453 -1.5903,14.9021 -43.8882,-0.1664 0.0456,3.4982 c 0.1211,2.9531 1.1812,4.5584 3.1952,4.7855 l 39.8903,-0.0454 z m 3.1198,0 18.6274,-0.0453 1.9082,-19.3394 h 16.462 l 8.4353,19.5664 h 20.7173 l -8.6927,-20.4599 c 6.7391,-5.0884 10.2072,-11.9942 10.3736,-20.7173 0.6514,-11.9185 -5.5275,-18.9606 -18.5366,-21.1263 h -43.0401 z m 23.5645,-46.5837 h 23.0193 c 3.6952,0.5602 5.2854,2.4835 4.7704,5.785 -0.5148,3.3015 -2.5141,4.9824 -6.0123,5.0431 l -22.8526,-0.0454 z" />
</svg>
