<?xml version="1.0" encoding="UTF-8" standalone="no"?>
<svg
   xmlns:dc="http://purl.org/dc/elements/1.1/"
   xmlns:cc="http://creativecommons.org/ns#"
   xmlns:rdf="http://www.w3.org/1999/02/22-rdf-syntax-ns#"
   xmlns:svg="http://www.w3.org/2000/svg"
   xmlns="http://www.w3.org/2000/svg"
   viewBox="0 0 595.27557 841.88977"
   id="svg2"
   height="841.88977"
   width="595.27557"
   version="1.1">
  <metadata
     id="metadata12">
    <rdf:RDF>
      <cc:Work
         rdf:about="">
        <dc:format>image/svg+xml</dc:format>
        <dc:type
           rdf:resource="http://purl.org/dc/dcmitype/StillImage" />
      </cc:Work>
    </rdf:RDF>
  </metadata>
  <defs
     id="defs10" />
  <path
     id="path4"
     style="fill:#ffffff;fill-rule:evenodd;stroke:#1b1918;stroke-width:0.56690001;stroke-linecap:butt;stroke-linejoin:miter;stroke-dasharray:none"
     d="m 539.4424,440.6031 -486.25,0 c 1.1199,-13.458 6.2515,-63.405 8.1042,-72.0367 0.2552,-1.1912 2.0707,-0.8997 4.503,-0.8997 l 449.3303,0 c 12.7604,0 28.7975,10.0866 26.6672,23.8977 l -2.3547,49.0387 z m -485.3492,6.3036 483.5476,0 c 10.1546,0 7.1874,-11.667 8.152,-23.3649 0.7743,-9.3921 1.5645,-19.634 1.7304,-29.8089 0.1138,-6.9566 1.3443,-6.1727 -0.9742,-12.4508 -4.2127,-11.4043 -16.8167,-19.0182 -28.7177,-19.0182 l -456.5347,0 c -2.963,0 -5.5825,4.2424 -6.0898,6.5163 l -6.5993,60.0346 c -0.72,7.5097 -4.3531,18.0919 5.4857,18.0919 z" />
  <path
     id="path6"
     style="fill:#5bc3cd;fill-rule:evenodd"
     d="m 59.2248,434.9959 43.5702,0.0454 c 12.6907,-0.7724 20.0359,-11.1008 22.0652,-30.9702 2.0293,-19.8845 -3.6953,-30.1975 -17.1434,-30.9699 l -42.2827,-0.0454 -6.2093,61.9401 z m 20.6266,-46.7657 22.8526,0 c 2.8321,0.1211 4.7251,1.2269 5.6792,3.3319 1.3629,3.3922 1.7567,7.5872 1.2116,12.5546 -0.5454,4.9672 -1.5449,8.6018 -2.9835,10.9038 -1.1358,2.4684 -2.9835,3.8619 -5.5579,4.2253 l -24.2611,-0.0454 3.0591,-30.9702 z m 106.2524,46.6747 -43.7368,0 c -12.5394,-0.7421 -17.8399,-11.0857 -15.9166,-31.0305 1.9384,-19.9602 9.7076,-30.2735 23.2767,-30.9549 l 42.5554,0 -1.5142,15.0837 -37.7093,0.0453 c -3.1955,-0.121 -5.1038,0.6815 -5.7246,2.3928 l -1.5146,5.3308 44.2367,0.0453 -1.5903,14.9021 -43.8882,-0.1664 0.0456,3.4982 c 0.1211,2.9531 1.1812,4.5584 3.1952,4.7855 l 39.8903,-0.0454 -1.6053,16.1135 z m 8.3597,-62.1521 -1.787,17.4764 5.1035,-0.0907 -2.211,21.5654 c -1.5225,14.8516 4.2236,23.292 17.7647,23.292 l 42.7677,0 1.7105,-17.4767 -37.7547,-0.0453 c -3.8466,-0.3938 -5.7546,-2.4534 -5.7245,-6.179 l 2.1809,-21.02 31.8031,0.0453 1.7416,-17.5674 -55.5948,0 z m 56.9733,61.9704 4.3004,-42.2829 c 1.3022,-12.8041 9.6202,-19.9432 23.0193,-19.9146 l 21.0353,0.0454 c 12.1913,0.8178 17.9159,7.4055 17.1737,19.7331 l -4.2556,42.5098 -16.5073,0 1.9083,-18.9 -27.608,-0.1364 -1.8627,18.9456 -17.2034,0 z m 27.9861,-47.5075 c -4.4373,0.106 -6.618,2.3017 -6.5576,6.5574 l -0.7118,6.618 27.5476,0 0.5755,-5.1944 c 0.8934,-4.7858 -0.4998,-7.4662 -4.1647,-8.0266 l -16.689,0.0456 z m 36.1644,47.7802 18.5517,0 6.1639,-62.1221 -18.1429,0 -6.5727,62.1221 z m 27.6838,-62.2431 -3.9377,39.0875 c -1.6355,14.902 4.3314,22.7012 17.8702,23.3827 l 42.9494,0 1.6507,-17.5371 -37.891,-0.0454 c -3.877,-0.3787 -5.7853,-2.4534 -5.7246,-6.2093 l 3.9073,-38.6784 -18.8243,0 z m 121.3511,62.1521 -43.7368,0 c -12.5394,-0.7421 -17.8399,-11.0857 -15.9166,-31.0305 1.9383,-19.9602 9.7075,-30.2735 23.2767,-30.9549 l 42.5554,0 -1.5143,15.0837 -37.7092,0.0453 c -3.1955,-0.121 -5.1038,0.6815 -5.7246,2.3928 l -1.5146,5.3308 44.2367,0.0453 -1.5903,14.9021 -43.8882,-0.1664 0.0456,3.4982 c 0.1211,2.9531 1.1812,4.5584 3.1952,4.7855 l 39.8903,-0.0454 -1.6053,16.1135 z m 3.1198,0 18.6274,-0.0453 1.9082,-19.3394 16.462,0 8.4353,19.5664 20.7173,0 -8.6927,-20.4599 c 6.7391,-5.0884 10.2072,-11.9942 10.3736,-20.7173 0.6514,-11.9185 -5.5275,-18.9606 -18.5366,-21.1263 l -43.0401,0 -6.2544,62.1218 z m 23.5645,-46.5837 23.0193,0 c 3.6952,0.5602 5.2854,2.4835 4.7704,5.785 -0.5148,3.3015 -2.5141,4.9824 -6.0123,5.0431 l -22.8526,-0.0454 1.0752,-10.7827 z" />
</svg>
