<?xml version="1.0" encoding="UTF-8" standalone="no"?>
<!-- Created with Inkscape (http://www.inkscape.org/) -->

<svg
   version="1.1"
   id="svg38271"
   width="178.11276"
   height="30.658754"
   viewBox="0 0 178.11276 30.658754"
   sodipodi:docname="logo_vector1.svg"
   inkscape:version="1.1.2 (b8e25be833, 2022-02-05)"
   xmlns:inkscape="http://www.inkscape.org/namespaces/inkscape"
   xmlns:sodipodi="http://sodipodi.sourceforge.net/DTD/sodipodi-0.dtd"
   xmlns="http://www.w3.org/2000/svg"
   xmlns:svg="http://www.w3.org/2000/svg">
  <defs
     id="defs38275" />
  <sodipodi:namedview
     id="namedview38273"
     pagecolor="#ffffff"
     bordercolor="#666666"
     borderopacity="1.0"
     inkscape:pageshadow="2"
     inkscape:pageopacity="0.0"
     inkscape:pagecheckerboard="0"
     showgrid="false"
     inkscape:zoom="8.0000004"
     inkscape:cx="37.374998"
     inkscape:cy="0.99999996"
     inkscape:window-width="1920"
     inkscape:window-height="1017"
     inkscape:window-x="-8"
     inkscape:window-y="-8"
     inkscape:window-maximized="1"
     inkscape:current-layer="g6427" />
  <g
     inkscape:groupmode="layer"
     inkscape:label="text"
     id="g38277"
     style="display:inline">
    <path
       style="fill:#01fdff;fill-opacity:1;stroke-width:0.0356083"
       d="m 5.4897264,25.810927 c 0.920611,-7.36818 1.120278,-14.539742 2.089516,-20.8753723 5.5044286,-0.106994 8.3797176,-0.06399 15.5898376,-0.07314 l 0.353191,0.07511 c 0.450881,0.09589 0.760065,0.207727 1.249183,0.451866 0.851805,0.425172 1.394437,0.882098 1.829128,1.540227 0.323718,0.490114 0.925364,1.718265 1.099709,2.244859 0.255773,0.772541 0.320657,1.2929263 0.352772,2.8293253 0.03339,1.597165 -0.06023,3.318922 -0.25654,4.718101 -0.528968,3.770206 -1.810104,6.458752 -3.783892,7.940745 -0.879403,0.660288 -1.728504,0.978895 -3.079796,1.15563 -0.367308,0.04804 -1.366054,0.05496 -7.931751,0.05496 -7.1301636,0 -7.5115206,-0.0032 -7.5113586,-0.06231 z M 21.290444,20.581642 c 0.210697,-0.246878 0.464,-0.556129 0.562895,-0.687224 0.695457,-0.921909 1.14722,-2.460531 1.296904,-4.417019 0.101019,-1.320403 -0.01543,-3.732626 -0.214956,-4.452625 -0.147959,-0.53393 -0.411958,-0.895659 -0.791826,-1.0849553 l -0.181243,-0.09032 H 12.016114 C 11.89719,13.784879 11.080063,17.430487 11.080063,21.030508 h 9.827297 z m 13.224913,5.250144 -1.294673,-0.0303 -0.244679,-0.102803 c -0.841669,-0.353631 -1.832432,-1.319578 -2.477515,-2.415457 -0.740339,-1.257705 -0.952646,-2.381359 -0.950416,-5.030166 0.0037,-4.425384 0.800552,-7.900308 2.343429,-10.2195853 0.950259,-1.428444 2.170893,-2.377166 3.72623,-2.89616 6.249775,-0.515255 8.267391,-0.272979 16.37518,-0.272979 l -0.02065,0.204748 c -0.160795,1.60381 -0.283164,2.896713 -0.478166,4.575476 l -0.04123,0.204557 c -4.433185,0.117953 -9.115777,-0.170976 -13.432124,0.09913 -0.598223,0.08809 -1.015492,0.1924573 -1.182769,0.2958403 -0.166949,0.103181 -0.353455,0.323913 -0.470528,0.556877 -0.240224,0.478032 -0.453458,1.229664 -0.488569,1.722179 l -0.02433,0.341303 c 5.368631,0.05658 10.714188,0.09658 15.340991,0.172029 -0.146818,1.486765 -0.294188,2.973534 -0.444302,4.45994 -5.405987,0.0135 -9.525931,0.0089 -15.349346,0.0089 l -0.02738,0.09792 c -0.01506,0.05386 -0.02739,0.546588 -0.02739,1.094956 0,1.083181 0.02766,1.291937 0.208679,1.574894 0.238691,0.37311 0.555771,0.515006 1.464912,0.655565 4.874067,0.08271 7.661763,0.05776 13.402917,0.06844 l -0.01931,0.168056 c -0.165689,1.661548 -0.287366,2.928674 -0.458422,4.690312 -5.143194,-0.0215 -10.287691,0.04506 -15.430537,-0.02367 z m 24.73188,-0.03031 c -0.950098,-0.177051 -1.624063,-0.466194 -2.257824,-0.968645 -1.381762,-1.095476 -1.920195,-2.320518 -2.038992,-4.63911 0.01762,-3.490698 0.388984,-5.945795 0.747522,-9.721068 0.01969,-0.215431 0.04322,-0.435757 0.05228,-0.4896153 l 0.01648,-0.09792 H 54.01575 l 0.02051,-0.115727 c 0.227233,-2.071395 0.25472,-2.74745 0.50468,-4.864451 6.364025,-0.04091 11.213682,-0.03409 18.065858,-0.04101 l -0.01686,0.115933 c -0.01489,0.102417 -0.477248,4.835429 -0.477248,4.885457 -4.010516,0.03003 -7.067208,0.01979 -11.387975,0.01979 l -0.02158,0.1691403 c -0.188995,3.002438 -0.649435,5.325376 -0.7682,7.985163 -3.91e-4,1.875124 0.640793,2.582297 2.563514,2.827377 4.429358,0.273652 6.066299,0.0749 11.124926,0.17847 -0.01023,0.02877 -0.478042,4.740222 -0.478042,4.814523 -4.856456,-0.07281 -8.754092,0.19674 -13.898104,-0.05832 z m 15.091367,-0.06176 c 0.477354,-5.245157 1.044638,-11.272725 1.497412,-15.712166 0.01173,-0.06855 0.09223,-0.3373983 0.178882,-0.5974493 0.376899,-1.131131 0.841047,-1.874597 1.663762,-2.664999 1.272652,-1.222662 2.314718,-1.615012 4.867272,-1.832583 1.122815,-0.09571 7.520076,-0.06771 9.222552,0.04036 0.991228,0.06292 1.518918,0.192493 2.04543,0.502246 0.954021,0.561262 1.577683,1.190772 1.987075,2.005712 0.477511,0.950537 0.681354,1.77989 0.669707,2.7247523 -0.452494,6.114947 -0.891426,9.665514 -1.481289,15.516323 l -0.02054,0.151335 h -4.909579 v -0.09792 c 0.206393,-2.317066 0.410078,-4.280693 0.569687,-6.334365 v -0.08403 c -3.545183,0.07333 -7.245783,-0.126441 -10.7181,0.06559 0,0.03607 -0.0333,0.400195 -0.074,0.80916 -0.0511,0.513402 -0.06221,0.747502 -0.03593,0.756265 0.02539,0.0085 0.02336,0.02745 -0.0061,0.05699 -0.02912,0.02919 -0.123102,0.860086 -0.275569,2.436308 l -0.231333,2.392014 H 74.319575 Z M 91.277129,12.878475 c 0.12078,-1.253232 0.118273,-1.363982 -0.04257,-1.880251 -0.09548,-0.306483 -0.151119,-0.403767 -0.316246,-0.552949 -0.243472,-0.219962 -0.644314,-0.297612 -2.140924,-0.414734 -1.847758,-0.1446023 -2.134003,-0.1549883 -3.711743,-0.1346743 -3.174142,0.04087 -3.735041,0.2164793 -4.197927,1.3143233 -0.262288,0.547836 -0.26171,1.183765 -0.316234,1.666018 l -0.142562,1.210795 -0.03011,0.818879 h 10.713116 z m 5.618954,12.900216 c 0,-0.42273 2.036136,-20.8027803 2.086515,-20.8842943 1.756502,-0.04539 3.095662,-0.03006 4.985242,-0.03006 -0.73137,7.2573183 -1.4083,14.6444993 -2.03452,20.8575673 l -0.0208,0.151335 h -5.016407 z m 12.979227,0.0079 c -1.26928,-0.265592 -1.89986,-0.635779 -2.76396,-1.622585 -1.00748,-1.150548 -1.25005,-1.97189 -1.24618,-4.219584 9.6e-4,-0.567953 0.0256,-1.401187 0.0548,-1.851632 0.4582,-4.408723 0.75562,-8.8367813 1.27509,-13.2389083 1.65165,0.01206 3.30468,0.02093 4.95544,0.05039 -0.23996,4.309048 -0.99697,9.2082313 -1.1888,13.1351083 -4.3e-4,2.123467 0.75757,2.743496 3.56834,2.918801 4.3689,0.107422 7.45446,0.02904 11.72217,0.03669 0.006,0.01356 -0.46382,4.827909 -0.47528,4.869436 -5.46242,0.0119 -9.6255,0.006 -15.50988,0.0043 -0.13058,-0.02729 -0.26119,-0.05468 -0.39174,-0.08201 z m 22.50445,0.06178 c -0.58179,-0.05964 -0.80794,-0.38969 -1.13146,-0.600887 -0.95757,-0.720365 -1.88782,-2.008226 -2.26156,-3.130953 -0.56145,-1.686605 -0.56345,-5.585929 -0.005,-8.825819 0.31404,-1.820407 0.9326,-3.5974443 1.70094,-4.8865573 0.45682,-0.766443 1.15546,-1.581548 1.80344,-2.104078 0.84833,-0.68409 2.04281,-1.220731 3.01205,-1.353213 5.64814,-0.119233 8.25626,-0.07303 15.52121,-0.08476 l -0.0208,0.20585 c -0.16084,1.604242 -0.28325,2.897509 -0.47828,4.576579 l -0.0412,0.204557 c -4.43319,0.117952 -9.11578,-0.170977 -13.43213,0.09913 -0.59822,0.08809 -1.01549,0.1924563 -1.18276,0.2958393 -0.16695,0.103182 -0.35346,0.323914 -0.47053,0.556878 -0.33183,0.708908 -0.47103,1.495169 -0.54583,2.217509 l 15.37373,0.018 c -0.14676,1.486765 -0.29405,2.973534 -0.44409,4.45994 -0.002,0.0049 -3.45634,0.0089 -7.67644,0.0089 h -7.67291 c -0.079,0.426254 -0.0493,0.842147 -0.0548,1.192876 -0.12173,1.599691 0.57711,1.932732 1.67359,2.230459 4.87407,0.08271 7.66177,0.05776 13.40292,0.06844 -0.17822,1.735397 -0.34387,3.4796 -0.47772,4.858368 l -8.243,0.0036 c -4.53366,0.002 -8.29108,-0.0028 -8.34984,-0.01064 z m 19.18985,-0.144031 c 0.0422,-0.332155 2.0149,-20.6336563 2.0149,-20.7358403 v -0.104161 h 7.13204 c 6.26665,0 7.18372,0.0068 7.55787,0.05574 0.46107,0.05197 0.84577,0.186431 1.26261,0.298893 1.91417,1.066428 3.14637,2.378655 3.64458,4.265842 0.0102,0.01645 0.0282,0.229424 0.04,0.473268 0.0118,0.2438443 0.0293,0.5074483 0.0388,0.5857863 0.0267,0.220667 -0.0476,1.234319 -0.12532,1.709199 -0.13495,0.824272 -0.3331,1.466841 -0.65883,2.136498 -0.52872,1.086967 -1.24731,1.776599 -2.50666,2.405662 -0.56454,0.265881 -1.19347,0.511842 -1.75057,0.738977 l -0.0797,0.06452 c 1.11949,2.736737 2.22063,5.481347 3.31062,8.230004 -1.73673,0.07943 -2.73674,0.04451 -4.89251,0.04451 -0.99921,-2.259861 -1.93242,-4.603268 -2.83979,-6.765579 -2.14271,0.02371 -4.42771,-0.05514 -6.50133,0.06232 -0.2478,2.336617 -0.40744,4.373689 -0.58724,6.68546 -1.69364,0.0061 -3.38729,0.01213 -5.08093,0.0182 z m 14.48512,-10.979382 c 0.65567,-0.258439 1.21424,-0.626206 1.49545,-0.984616 0.66922,-0.852923 0.90021,-2.421652 0.51416,-3.491861 -0.13231,-0.3668073 -0.21169,-0.5089143 -0.41237,-0.7382353 -0.37379,-0.427152 -0.94523,-0.812248 -1.46989,-0.990555 l -0.33051,-0.112325 c -2.55193,-0.0068 -5.10385,-0.01355 -7.65578,-0.02033 -0.19945,2.0988743 -0.39361,4.1984293 -0.6024,6.2962913 l -0.0163,0.115727 c 2.81505,-0.02878 5.69368,0.06675 8.47761,-0.0741 z"
       id="path38281-3"
       sodipodi:nodetypes="cccsssssssssscscsssccccsccsscsccccccsssccccssscccccccsccscccccscccccccccccssssssccccccccscscccccssssccccccccccccccsscccccccccccscssccccccsccccscccccccccccscccccsccsccccccccccsssssccccc" />
  </g>
  <g
     inkscape:groupmode="layer"
     inkscape:label="border"
     id="g6427"
     style="display:inline">
    <path
       style="fill:#ffffff;stroke-width:0.32336"
       d="M 2.0904366,30.618509 C 1.7124958,30.54268 1.1531878,30.198953 0.84753247,29.854663 0.31871125,29.259 0.36244125,28.569659 1.7504608,15.621832 3.1769934,2.3147506 3.2716593,1.554346 4.0857152,0.72451108 L 4.8739125,0.31792061 86.135804,0.23229849 c 57.099956,-0.0601675 81.758936,0.0189036 82.933546,0.26593578 3.98623,0.83832653 7.50703,3.62267673 8.55847,6.76828763 0.44739,1.338486 0.46793,2.3268324 0.16743,8.0622171 -0.63307,12.083456 -0.83748,14.23468 -1.40786,14.816126 -0.48413,0.493512 -7.31042,0.538476 -87.067551,0.573503 C 41.72161,30.73926 2.4683774,30.694336 2.0904366,30.618509 Z M 175.24631,27.132664 c 9.6e-4,-0.742208 0.22194,-5.16043 0.49082,-9.818269 l 0.48889,-8.4687993 -0.89117,-1.8148888 c -1.0542,-2.146951 -2.55575,-3.3122615 -5.48878,-4.2596774 -2.01786,-0.6518 -2.73651,-0.6574807 -83.198719,-0.6574807 H 5.484067 L 5.2175586,2.848124 2.2410929,28.557052 c 57.3769711,-1.40523 114.9223671,2.050216 172.2826771,0.04477 0.61175,-0.101601 0.72089,-0.323552 0.72254,-1.469152 z"
       id="path6990"
       sodipodi:nodetypes="sssccssssssssscsssccccss" />
  </g>
</svg>
